<?xml version="1.0" standalone="no"?>
<!DOCTYPE svg PUBLIC "-//W3C//DTD SVG 20010904//EN"
 "http://www.w3.org/TR/2001/REC-SVG-20010904/DTD/svg10.dtd">
<svg version="1.0" xmlns="http://www.w3.org/2000/svg"
 width="500.000000pt" height="500.000000pt" viewBox="0 0 500.000000 500.000000"
 preserveAspectRatio="xMidYMid meet">

<g transform="translate(0.000000,500.000000) scale(0.100000,-0.100000)"
fill="#000000" stroke="none">
<path d="M1898 4889 c-515 -41 -994 -411 -1307 -1011 -270 -516 -400 -1024
-431 -1683 -31 -659 69 -1133 319 -1512 310 -471 903 -678 1430 -499 300 101
571 331 849 719 129 179 258 421 382 715 43 101 44 103 74 100 29 -3 31 -6 39
-58 93 -632 197 -978 369 -1233 55 -82 169 -194 240 -235 129 -76 317 -110
450 -83 286 60 478 381 528 880 5 57 10 124 10 149 l0 45 -81 -86 c-97 -105
-201 -176 -306 -211 -64 -21 -97 -26 -182 -26 -124 0 -199 17 -302 71 -144 75
-279 213 -374 384 -87 156 -165 395 -205 627 l-20 124 77 164 c42 91 323 700
624 1355 l548 1190 -407 3 c-224 1 -412 0 -418 -2 -6 -2 -150 -352 -320 -776
l-309 -772 -29 6 c-16 4 -31 8 -33 10 -2 2 -17 77 -34 167 -107 581 -272 976
-512 1226 -188 196 -394 273 -669 252z m425 -783 c197 -66 341 -214 480 -491
111 -223 141 -356 142 -630 0 -190 0 -190 -34 -289 -63 -187 -244 -623 -380
-913 -290 -622 -598 -956 -983 -1067 -229 -66 -485 -51 -673 39 -225 108 -367
344 -422 699 -27 172 -24 482 6 656 59 345 177 714 324 1005 52 104 177 306
251 405 95 128 280 311 393 388 165 112 365 195 538 222 106 16 271 5 358 -24z"/>
</g>
</svg>
