<svg xmlns="http://www.w3.org/2000/svg" version="1.1" xmlns:xlink="http://www.w3.org/1999/xlink" xmlns:svgjs="http://svgjs.dev/svgjs" width="2000" height="2242" viewBox="0 0 2000 2242"><g transform="matrix(1,0,0,1,-3.115197975078104,0)"><svg viewBox="0 0 321 360" data-background-color="#ffffff" preserveAspectRatio="xMidYMid meet" height="2242" width="2000" xmlns="http://www.w3.org/2000/svg" xmlns:xlink="http://www.w3.org/1999/xlink"><g id="tight-bounds" transform="matrix(1,0,0,1,0.5000107250000383,0)"><svg viewBox="0 0 320 360" height="360" width="320"><g><svg></svg></g><g><svg viewBox="0 0 320 360" height="360" width="320"><g><path transform="translate(-21.67367,-1.67367) scale(3.63347,3.63347)" d="M87.84 28.16c-3.42-5.92-31.01-21.84-37.84-21.84-6.83 0-34.41 15.92-37.84 21.84-3.19 5.51-3.19 38.18 0 43.69 3.43 5.91 31.01 21.83 37.84 21.83 6.83 0 34.42-15.92 37.84-21.84 3.19-5.51 3.19-38.17 0-43.68zM91.14 26.25c-3.98-6.88-32.88-23.75-41.14-23.75-8.26 0-37.16 16.87-41.14 23.75-3.86 6.66-3.86 40.84 0 47.5 3.98 6.88 32.88 23.75 41.14 23.75 8.26 0 37.16-16.87 41.14-23.74 3.86-6.67 3.86-40.85 0-47.51zM88.78 72.39c-3.51 6.07-31.78 22.38-38.78 22.38-7 0-35.27-16.32-38.78-22.39-3.27-5.65-3.27-39.13 0-44.78 3.51-6.06 31.78-22.37 38.78-22.37 7 0 35.27 16.32 38.78 22.38 3.27 5.65 3.27 39.13 0 44.78z" fill="#000000" fill-rule="nonzero" stroke="none" stroke-width="1" stroke-linecap="butt" stroke-linejoin="miter" stroke-miterlimit="10" stroke-dasharray="" stroke-dashoffset="0" font-family="none" font-weight="none" font-size="none" text-anchor="none" style="mix-blend-mode: normal" data-fill-palette-color="tertiary"></path></g><g transform="matrix(1,0,0,1,48,138.55768115503594)"><svg viewBox="0 0 224 82.88463768992814" height="82.88463768992814" width="224"><g><svg viewBox="0 0 375.990204078396 139.12416" height="82.88463768992814" width="224"><g transform="matrix(1,0,0,1,150.87020407839603,26.640904879401155)"><svg viewBox="0 0 225.11999999999998 85.84235024119768" height="85.84235024119768" width="225.11999999999998"><g id="textblocktransform"><svg viewBox="0 0 225.11999999999998 85.84235024119768" height="85.84235024119768" width="225.11999999999998" id="textblock"><g><rect width="225.11999999999998" height="4.486988837947285" x="0" y="55.04107013940076" fill="#ffffff" opacity="1" stroke-width="0" stroke="transparent" fill-opacity="1" class="rect-yte-0" data-fill-palette-color="quaternary" rx="1%" id="yte-0" data-palette-color="#ffffff"></rect></g><g transform="matrix(1,0,0,1,0.5599999999999881,0)"><svg viewBox="0 0 224 49.755350304122544" height="49.755350304122544" width="224"><g transform="matrix(1,0,0,1,0,0)"><svg width="224" viewBox="0.95 -37.9 221.93 49.3" height="49.755350304122544" data-palette-color="#ffffff"><path d="M0.95 0L12.65-34.1 17.85-34.1 29.55 0 25.2 0 22.2-9.1 8.35-9.1 5.3 0 0.95 0ZM9.65-13.1L20.85-13.1 15.35-30.1 15.2-30.1 9.65-13.1ZM34.1 0L34.1-37.45 38.1-37.9 38.1 0 34.1 0ZM45.34 11.4L45.34-19.35Q45.34-21.15 45.09-24.7L45.09-24.7 48.8-25.2 49.25-22.5Q50.25-23.35 51.32-24.03 52.4-24.7 53.67-25.18 54.95-25.65 56.4-25.65L56.4-25.65Q58.45-25.65 60.27-24.95 62.09-24.25 63.47-22.7 64.84-21.15 65.65-18.68 66.44-16.2 66.44-12.6L66.44-12.6Q66.44-8.95 65.37-6.43 64.3-3.9 62.57-2.33 60.84-0.75 58.67-0.05 56.5 0.65 54.25 0.65L54.25 0.65Q51.84 0.6 49.34 0.05L49.34 0.05 49.34 10.9 45.34 11.4ZM54.25-2.85L54.25-2.85Q56.34-2.85 57.84-3.6 59.34-4.35 60.32-5.68 61.3-7 61.75-8.72 62.2-10.45 62.2-12.4L62.2-12.4Q62.2-14.15 61.87-15.9 61.55-17.65 60.82-19.03 60.09-20.4 58.89-21.28 57.7-22.15 55.95-22.15L55.95-22.15Q54.65-22.15 53.5-21.68 52.34-21.2 51.32-20.53 50.3-19.85 49.34-19L49.34-19 49.34-3.65Q49.9-3.45 50.57-3.28 51.25-3.1 52.17-2.98 53.09-2.85 54.25-2.85ZM72.29 0L72.29-37.45 76.29-37.9 76.29-22Q77.79-23 79.27-23.75 80.74-24.5 82.29-25.08 83.84-25.65 85.29-25.65L85.29-25.65Q87.34-25.65 88.72-25.18 90.09-24.7 90.94-23.6 91.79-22.5 92.17-20.7 92.54-18.9 92.54-16.2L92.54-16.2 92.54 0 88.54 0 88.54-15.75Q88.54-17.25 88.49-18.43 88.44-19.6 88.07-20.43 87.69-21.25 86.92-21.7 86.14-22.15 84.74-22.15L84.74-22.15Q83.44-22.15 81.94-21.58 80.44-21 79.09-20.25 77.74-19.5 76.29-18.5L76.29-18.5 76.29 0 72.29 0ZM113.59-5.85L113.59-11.55Q112.59-11.5 111.69-11.45 110.79-11.4 109.91-11.33 109.04-11.25 108.34-11.15L108.34-11.15Q104.74-10.7 103.24-9.58 101.74-8.45 101.74-6.35L101.74-6.35Q101.74-4.6 102.81-3.73 103.89-2.85 105.64-2.85L105.64-2.85Q108.04-2.85 109.91-3.68 111.79-4.5 113.59-5.85L113.59-5.85ZM114.04 0.4L113.54-2.35Q111.19-1 109.16-0.18 107.14 0.65 104.79 0.65L104.79 0.65Q101.44 0.65 99.46-0.98 97.49-2.6 97.49-6.35L97.49-6.35Q97.49-8.3 98.49-9.75 99.49-11.2 101.11-12.18 102.74-13.15 104.79-13.7 106.84-14.25 108.99-14.4L108.99-14.4Q109.89-14.5 111.34-14.58 112.79-14.65 113.59-14.7L113.59-14.7Q113.59-16.45 113.49-17.82 113.39-19.2 112.89-20.18 112.39-21.15 111.41-21.65 110.44-22.15 108.64-22.15L108.64-22.15Q107.19-22.15 105.84-21.98 104.49-21.8 103.44-21.6L103.44-21.6Q102.19-21.35 101.14-21.05L101.14-21.05 100.34-24.5Q101.59-24.8 103.04-25.05L103.04-25.05Q104.29-25.3 105.94-25.48 107.59-25.65 109.49-25.65L109.49-25.65Q112.04-25.65 113.61-24.9 115.19-24.15 116.06-22.88 116.94-21.6 117.27-19.98 117.59-18.35 117.59-16.55L117.59-16.55 117.59-4.55Q117.59-3.85 117.61-3.08 117.64-2.3 117.72-1.55 117.79-0.8 117.89 0L117.89 0 114.04 0.4ZM124.34 0L126.14-34.1 131.49-34.1 139.19-13.8Q139.84-12.05 140.39-10.58 140.94-9.1 141.34-7.95L141.34-7.95Q141.84-6.65 142.19-5.55L142.19-5.55 142.29-5.55Q142.59-6.65 143.04-7.95L143.04-7.95Q143.44-9.1 143.94-10.58 144.44-12.05 145.14-13.8L145.14-13.8 152.99-34.1 158.34-34.1 160.09 0 155.84 0 154.99-18.75Q154.89-21.2 154.84-22.9 154.79-24.6 154.79-25.7L154.79-25.7 154.79-27.8 154.69-27.8Q154.39-27.05 153.94-25.75L153.94-25.75Q153.54-24.65 152.91-22.93 152.29-21.2 151.39-18.75L151.39-18.75 144.34 0 140.09 0 132.99-18.75Q132.04-21.15 131.44-22.88 130.84-24.6 130.44-25.7L130.44-25.7Q129.99-27 129.74-27.8L129.74-27.8 129.64-27.8Q129.69-27 129.74-25.7L129.74-25.7Q129.79-23.6 129.59-18.75L129.59-18.75 128.59 0 124.34 0ZM181.28-5.85L181.28-11.55Q180.28-11.5 179.38-11.45 178.49-11.4 177.61-11.33 176.74-11.25 176.03-11.15L176.03-11.15Q172.44-10.7 170.94-9.58 169.44-8.45 169.44-6.35L169.44-6.35Q169.44-4.6 170.51-3.73 171.59-2.85 173.34-2.85L173.34-2.85Q175.74-2.85 177.61-3.68 179.49-4.5 181.28-5.85L181.28-5.85ZM181.74 0.4L181.24-2.35Q178.88-1 176.86-0.18 174.84 0.65 172.49 0.65L172.49 0.65Q169.13 0.65 167.16-0.98 165.19-2.6 165.19-6.35L165.19-6.35Q165.19-8.3 166.19-9.75 167.19-11.2 168.81-12.18 170.44-13.15 172.49-13.7 174.53-14.25 176.69-14.4L176.69-14.4Q177.59-14.5 179.03-14.58 180.49-14.65 181.28-14.7L181.28-14.7Q181.28-16.45 181.19-17.82 181.09-19.2 180.59-20.18 180.09-21.15 179.11-21.65 178.13-22.15 176.34-22.15L176.34-22.15Q174.88-22.15 173.53-21.98 172.19-21.8 171.13-21.6L171.13-21.6Q169.88-21.35 168.84-21.05L168.84-21.05 168.03-24.5Q169.28-24.8 170.74-25.05L170.74-25.05Q171.99-25.3 173.63-25.48 175.28-25.65 177.19-25.65L177.19-25.65Q179.74-25.65 181.31-24.9 182.88-24.15 183.76-22.88 184.63-21.6 184.96-19.98 185.28-18.35 185.28-16.55L185.28-16.55 185.28-4.55Q185.28-3.85 185.31-3.08 185.34-2.3 185.41-1.55 185.49-0.8 185.59 0L185.59 0 181.74 0.4ZM192.38 0L192.38-21.1Q192.38-22.25 192.13-24.7L192.13-24.7 195.83-25.2 196.23-21.55 196.28-21.55Q197.18-22.7 198.03-23.55 198.88-24.4 199.81-25.03 200.73-25.65 201.58-25.65L201.58-25.65Q202.73-25.7 204.78-25.4L204.78-25.4 203.88-21.55Q202.23-21.85 201.58-21.8L201.58-21.8Q200.73-21.8 199.78-21 198.83-20.2 198.13-19.3L198.13-19.3Q197.23-18.2 196.38-16.8L196.38-16.8 196.38 0 192.38 0ZM211.03-32.15L215.03-32.65 215.03-25.15 222.28-25.15 222.28-21.9 215.03-21.9 215.03-8.55Q215.03-6.9 215.11-5.8 215.18-4.7 215.43-4.05 215.68-3.4 216.13-3.13 216.58-2.85 217.28-2.85L217.28-2.85Q219.18-2.9 221.68-4.25L221.68-4.25 222.88-1.2Q221.23-0.1 219.81 0.28 218.38 0.65 216.98 0.65L216.98 0.65Q213.68 0.65 212.36-1.23 211.03-3.1 211.03-7.45L211.03-7.45 211.03-21.9 206.43-21.9 206.43-25.15 211.03-25.15 211.03-32.15Z" opacity="1" transform="matrix(1,0,0,1,0,0)" fill="#ffffff" class="wordmark-text-0" data-fill-palette-color="quaternary" id="text-0"></path></svg></g></svg></g><g transform="matrix(1,0,0,1,0.5599999999999881,64.81377881262627)"><svg viewBox="0 0 224 21.02857142857143" height="21.02857142857143" width="224"><g transform="matrix(1,0,0,1,0,0)"><svg width="224" viewBox="3.9 -35.5 489.94 46" height="21.02857142857143" data-palette-color="#ffffff"><path d="M3.9 0L3.9-35 15.6-35Q20.65-35 23.13-31.8 25.6-28.6 25.6-23.55L25.6-23.55Q25.6-18.4 23.78-14.5 21.95-10.6 16.05-10.6L16.05-10.6 8.45-10.6 8.45 0 3.9 0ZM14.95-15Q17.8-15 19.15-16.38 20.5-17.75 20.78-19.43 21.05-21.1 21.05-23.5L21.05-23.5Q21.05-27.4 19.45-28.95 17.85-30.5 14.75-30.5L14.75-30.5 8.45-30.5 8.45-15 14.95-15ZM30.5 0L30.5-25.05 34.8-25.05 35-24.3Q37.15-25.45 39.75-25.45L39.75-25.45Q41.55-25.45 43.95-24.9L43.95-24.9 42.85-20.55Q41.5-21.15 39.95-21.15L39.95-21.15Q37.9-21.15 36.47-20.13 35.05-19.1 35.05-17.3L35.05-17.3 35.05 0 30.5 0ZM61.8-1.75Q60-0.6 57.7 0 55.4 0.6 53.09 0.6L53.09 0.6Q49.4 0.6 47.22-1.23 45.05-3.05 45.05-6.7L45.05-6.7 45.05-16.95Q45.05-21 47.57-23.25 50.09-25.5 54.25-25.5L54.25-25.5Q58.4-25.5 60.72-23.28 63.05-21.05 63.05-17.1L63.05-17.1 63.05-9.9 49.65-9.15 49.65-7.2Q49.65-5.45 50.67-4.53 51.7-3.6 53.55-3.6L53.55-3.6Q56.3-3.6 60.09-5.6L60.09-5.6 61.8-1.75ZM58.45-17.15Q58.45-19.2 57.15-20.18 55.84-21.15 54.2-21.15L54.2-21.15Q52.05-21.15 50.84-19.98 49.65-18.8 49.65-16.9L49.65-16.9 49.65-13.4 58.45-13.9 58.45-17.15ZM95.54 0L95.54-15.9Q95.54-21.2 91.59-21.2L91.59-21.2Q89.99-21.2 88.04-20.45L88.04-20.45 86.84-19.95Q87.04-19.55 87.17-18.88 87.29-18.2 87.29-17.6L87.29-17.6 87.29 0 82.74 0 82.74-15.8Q82.74-18.5 81.39-19.85 80.04-21.2 77.89-21.2L77.89-21.2Q75.64-21.2 73.44-19.9L73.44-19.9 73.44 0 68.89 0 68.89-25.05 73.04-25.05 73.34-24.25Q75.64-25.45 78.19-25.45L78.19-25.45Q79.94-25.45 81.52-24.85 83.09-24.25 84.24-23.05L84.24-23.05Q84.94-23.45 86.34-24.15L86.34-24.15Q89.29-25.5 92.04-25.5L92.04-25.5Q95.59-25.5 97.84-23.33 100.09-21.15 100.09-17.3L100.09-17.3 100.09 0 95.54 0ZM108.39-30.5Q107.39-30.5 106.62-31.28 105.84-32.05 105.84-33.05L105.84-33.05Q105.84-34 106.62-34.75 107.39-35.5 108.39-35.5L108.39-35.5Q109.39-35.5 110.12-34.77 110.84-34.05 110.84-33.05L110.84-33.05Q110.84-32.05 110.09-31.28 109.34-30.5 108.39-30.5L108.39-30.5ZM105.99 0L105.99-25.05 110.54-25.05 110.54 0 105.99 0ZM130.99 0L130.84-1.1Q129.94-0.35 128.69 0.1 127.44 0.55 126.04 0.55L126.04 0.55Q116.64 0.55 116.64-8.6L116.64-8.6 116.64-25.05 121.19-25.05 121.19-9Q121.19-6.4 122.36-5.13 123.54-3.85 126.04-3.85L126.04-3.85Q128.54-3.85 129.64-5.23 130.74-6.6 130.74-9.15L130.74-9.15 130.74-25.05 135.29-25.05 135.29 0 130.99 0ZM167.74 0L167.74-15.9Q167.74-21.2 163.79-21.2L163.79-21.2Q162.19-21.2 160.24-20.45L160.24-20.45 159.04-19.95Q159.24-19.55 159.36-18.88 159.49-18.2 159.49-17.6L159.49-17.6 159.49 0 154.94 0 154.94-15.8Q154.94-18.5 153.59-19.85 152.24-21.2 150.09-21.2L150.09-21.2Q147.84-21.2 145.64-19.9L145.64-19.9 145.64 0 141.09 0 141.09-25.05 145.24-25.05 145.54-24.25Q147.84-25.45 150.39-25.45L150.39-25.45Q152.14-25.45 153.71-24.85 155.29-24.25 156.44-23.05L156.44-23.05Q157.14-23.45 158.54-24.15L158.54-24.15Q161.49-25.5 164.24-25.5L164.24-25.5Q167.79-25.5 170.04-23.33 172.29-21.15 172.29-17.3L172.29-17.3 172.29 0 167.74 0ZM191.93 0L191.93-35.05 201.33-35.05Q206.98-35.05 209.96-31.95 212.93-28.85 212.93-23.7L212.93-23.7 212.93-10Q212.93 0 202.33 0L202.33 0 191.93 0ZM208.38-24.2Q208.38-27.45 206.61-29 204.83-30.55 201.83-30.55L201.83-30.55 196.48-30.55 196.48-4.15 201.53-4.15Q204.58-4.15 206.48-5.2 208.38-6.25 208.38-9.5L208.38-9.5 208.38-24.2ZM223.28-30.5Q222.28-30.5 221.5-31.28 220.73-32.05 220.73-33.05L220.73-33.05Q220.73-34 221.5-34.75 222.28-35.5 223.28-35.5L223.28-35.5Q224.28-35.5 225-34.77 225.73-34.05 225.73-33.05L225.73-33.05Q225.73-32.05 224.98-31.28 224.23-30.5 223.28-30.5L223.28-30.5ZM220.88 0L220.88-25.05 225.43-25.05 225.43 0 220.88 0ZM242.33 6.95Q245.88 6.5 245.88 2.6L245.88 2.6 245.88-1.35Q245.33-0.5 244.05 0.05 242.78 0.6 240.88 0.6L240.88 0.6Q236.48 0.6 234.03-1.8 231.58-4.2 231.58-8.8L231.58-8.8 231.58-16.25Q231.58-20.65 234.15-23.08 236.73-25.5 241.08-25.5L241.08-25.5Q242.83-25.5 244.13-25 245.43-24.5 245.98-23.7L245.98-23.7 246.58-25.05 250.43-25.05 250.43 3.2Q250.43 6.5 248.78 8.35 247.13 10.2 243.43 10.5L243.43 10.5 242.33 6.95ZM245.88-16.1Q245.88-18.5 244.6-19.78 243.33-21.05 240.88-21.05L240.88-21.05Q238.63-21.05 237.38-19.7 236.13-18.35 236.13-16L236.13-16 236.13-9.15Q236.13-6.65 237.3-5.2 238.48-3.75 240.88-3.75L240.88-3.75Q243.43-3.75 244.65-5.45 245.88-7.15 245.88-10.55L245.88-10.55 245.88-16.1ZM258.57-30.5Q257.57-30.5 256.8-31.28 256.02-32.05 256.02-33.05L256.02-33.05Q256.02-34 256.8-34.75 257.57-35.5 258.57-35.5L258.57-35.5Q259.57-35.5 260.3-34.77 261.02-34.05 261.02-33.05L261.02-33.05Q261.02-32.05 260.27-31.28 259.52-30.5 258.57-30.5L258.57-30.5ZM256.17 0L256.17-25.05 260.72-25.05 260.72 0 256.17 0ZM274.02 0.65Q270.32 0.35 268.77-1.55 267.22-3.45 267.22-6.6L267.22-6.6 267.22-35 271.82-35 271.82-25.05 277.02-25.05 275.82-20.75 271.82-20.75 271.82-6.6Q271.82-4.85 272.72-4.03 273.62-3.2 275.37-2.95L275.37-2.95 274.02 0.65ZM299.27 0Q293.87 0.55 291.47 0.55L291.47 0.55Q286.22 0.55 283.12-1.4 280.02-3.35 280.02-8.45L280.02-8.45 280.02-12.6Q280.02-17.55 283.47-19.25L283.47-19.25Q285.12-20.05 287.37-20.05L287.37-20.05Q289.37-20.05 291.42-19.45 293.47-18.85 294.72-18.05L294.72-18.05Q294.72-20.15 293.12-21.2 291.52-22.25 288.52-22.25L288.52-22.25 288.87-25.45Q293.67-25.45 295.94-23.93 298.22-22.4 298.74-20.3 299.27-18.2 299.27-14.9L299.27-14.9 299.27 0ZM294.72-13.5Q293.42-14.25 291.57-14.85 289.72-15.45 288.12-15.45L288.12-15.45Q284.57-15.45 284.57-12.1L284.57-12.1 284.57-8.8Q284.57-3.65 291.17-3.65L291.17-3.65Q292.77-3.65 294.72-3.95L294.72-3.95 294.72-13.5ZM304.97 0L304.97-35 309.52-35 309.52 0 304.97 0ZM331.31 0L331.31-35 343.01-35Q348.06-35 350.54-31.8 353.01-28.6 353.01-23.55L353.01-23.55Q353.01-18.4 351.19-14.5 349.36-10.6 343.46-10.6L343.46-10.6 335.86-10.6 335.86 0 331.31 0ZM342.36-15Q345.21-15 346.56-16.38 347.91-17.75 348.19-19.43 348.46-21.1 348.46-23.5L348.46-23.5Q348.46-27.4 346.86-28.95 345.26-30.5 342.16-30.5L342.16-30.5 335.86-30.5 335.86-15 342.36-15ZM357.91 0L357.91-25.05 362.21-25.05 362.41-24.3Q364.56-25.45 367.16-25.45L367.16-25.45Q368.96-25.45 371.36-24.9L371.36-24.9 370.26-20.55Q368.91-21.15 367.36-21.15L367.36-21.15Q365.31-21.15 363.88-20.13 362.46-19.1 362.46-17.3L362.46-17.3 362.46 0 357.91 0ZM393.06-9.2Q393.06-5 390.75-2.25 388.45 0.5 383.81 0.5L383.81 0.5Q379.15 0.5 376.78-2.27 374.4-5.05 374.4-9.2L374.4-9.2 374.4-15.8Q374.4-20.55 376.83-23.08 379.25-25.6 383.81-25.6L383.81-25.6Q388.15-25.6 390.61-22.98 393.06-20.35 393.06-15.8L393.06-15.8 393.06-9.2ZM388.56-15.8Q388.56-21.1 383.81-21.1L383.81-21.1Q381.65-21.1 380.31-19.9 378.95-18.7 378.95-15.8L378.95-15.8 378.95-8.7Q378.95-6.35 380.31-5.13 381.65-3.9 383.81-3.9L383.81-3.9Q385.95-3.9 387.25-5.15 388.56-6.4 388.56-8.7L388.56-8.7 388.56-15.8ZM398.8-17.3Q398.8-22.55 403.05-24.5L403.05-24.5Q405.2-25.5 407.9-25.5L407.9-25.5Q409.3-25.5 410.58-25.23 411.85-24.95 412.75-24.5L412.75-24.5 412.75-35 417.25-35 417.25 0 414.5 0.25Q411.25 0.6 409.4 0.6L409.4 0.6Q407.55 0.6 405.93 0.25 404.3-0.1 402.7-0.9L402.7-0.9Q400.9-1.8 399.85-3.55 398.8-5.3 398.8-7.85L398.8-7.85 398.8-17.3ZM412.75-19.85Q410.7-20.95 408.3-20.95L408.3-20.95Q406.1-20.95 404.7-19.75 403.3-18.55 403.3-15.95L403.3-15.95 403.3-7.6Q403.3-5.65 404.98-4.63 406.65-3.6 409.35-3.6L409.35-3.6Q410.85-3.6 412.75-4L412.75-4 412.75-19.85ZM435.25 0L435.1-1.1Q434.2-0.35 432.95 0.1 431.7 0.55 430.3 0.55L430.3 0.55Q420.9 0.55 420.9-8.6L420.9-8.6 420.9-25.05 425.45-25.05 425.45-9Q425.45-6.4 426.62-5.13 427.8-3.85 430.3-3.85L430.3-3.85Q432.8-3.85 433.9-5.23 435-6.6 435-9.15L435-9.15 435-25.05 439.55-25.05 439.55 0 435.25 0ZM459.35-0.3Q456.25 0.5 453.35 0.5L453.35 0.5Q450.65 0.5 448.85-0.1L448.85-0.1Q445.9-1.1 444.57-3.18 443.25-5.25 443.25-9L443.25-9 443.25-15.4Q443.25-20.35 445.85-22.93 448.45-25.5 452.55-25.5L452.55-25.5Q455.8-25.5 459.25-23.9L459.25-23.9 458-20.1Q455.55-21.1 453.35-21.1L453.35-21.1Q450.75-21.1 449.27-19.68 447.8-18.25 447.8-15.7L447.8-15.7 447.8-8.45Q447.8-6.05 449.45-5 451.1-3.95 453.65-3.95L453.65-3.95Q455.9-3.95 458.15-4.6L458.15-4.6 459.35-0.3ZM469.59 0.65Q465.89 0.35 464.34-1.55 462.79-3.45 462.79-6.6L462.79-6.6 462.79-35 467.39-35 467.39-25.05 472.59-25.05 471.39-20.75 467.39-20.75 467.39-6.6Q467.39-4.85 468.29-4.03 469.19-3.2 470.94-2.95L470.94-2.95 469.59 0.65ZM480.04-6.7Q480.14-5.35 481.44-4.42 482.74-3.5 484.79-3.5L484.79-3.5Q486.64-3.5 487.87-4.42 489.09-5.35 489.09-6.8L489.09-6.8Q489.09-8.55 487.77-9.45 486.44-10.35 483.74-11.25L483.74-11.25Q481.49-12 480.04-12.7 478.59-13.4 477.47-14.75 476.34-16.1 476.14-18.25L476.14-18.25Q475.99-19.95 476.82-21.68 477.64-23.4 479.62-24.53 481.59-25.65 484.69-25.65L484.69-25.65Q486.29-25.65 487.52-25.33 488.74-25 489.44-24.65 490.14-24.3 490.29-24.2L490.29-24.2 488.94-20.1Q488.84-20.2 488.34-20.48 487.84-20.75 486.89-21.03 485.94-21.3 484.69-21.3L484.69-21.3Q482.54-21.3 481.69-20.43 480.84-19.55 480.99-18.25L480.99-18.25Q481.14-17.25 482.27-16.6 483.39-15.95 485.59-15.2L485.59-15.2Q488.14-14.3 489.79-13.43 491.44-12.55 492.64-10.93 493.84-9.3 493.84-6.75L493.84-6.75Q493.84-3.6 491.57-1.43 489.29 0.75 484.79 0.75L484.79 0.75Q481.94 0.75 479.87-0.23 477.79-1.2 476.72-2.8 475.64-4.4 475.54-6.35L475.54-6.35 480.04-6.7Z" opacity="1" transform="matrix(1,0,0,1,0,0)" fill="#ffffff" class="slogan-text-1" data-fill-palette-color="quaternary" id="text-1"></path></svg></g></svg></g></svg></g></svg></g><g><svg viewBox="0 0 139.12416 139.12416" height="139.12416" width="139.12416"><g><svg xmlns="http://www.w3.org/2000/svg" data-name="Layer 1" viewBox="22 22 56 56" x="0" y="0" height="139.12416" width="139.12416" class="icon-icon-0" data-fill-palette-color="quaternary" id="icon-0"><path d="M37.76 78A15.81 15.81 0 0 0 52.57 67.63L54.18 63.2 56.61 70.5A11 11 0 0 0 78 67V58H70V67A3 3 0 0 1 64.21 67.94L58.58 51.1 69.17 22H60.65L54.51 38.89 52.44 32.69A15.62 15.62 0 0 0 22 37.62V62.24A15.78 15.78 0 0 0 37.76 78M30 37.62A7.62 7.62 0 0 1 44.85 35.21L50.11 51 45.05 64.89A7.76 7.76 0 0 1 30 62.24Z" fill="#ffffff" data-fill-palette-color="quaternary"></path></svg></g></svg></g></svg></g></svg></g></svg></g><defs></defs></svg><rect width="320" height="360" fill="none" stroke="none" visibility="hidden"></rect></g></svg></g></svg>